<?xml version="1.0" encoding="UTF-8" standalone="no"?>
<!-- Created with Inkscape (http://www.inkscape.org/) -->

<svg
   width="250"
   height="250"
   viewBox="0 0 250 250"
   version="1.1"
   id="svg5"
   inkscape:version="1.2.2 (b0a8486541, 2022-12-01)"
   sodipodi:docname="logo-alt.svg"
   xmlns:inkscape="http://www.inkscape.org/namespaces/inkscape"
   xmlns:sodipodi="http://sodipodi.sourceforge.net/DTD/sodipodi-0.dtd"
   xmlns="http://www.w3.org/2000/svg"
   xmlns:svg="http://www.w3.org/2000/svg">
  <sodipodi:namedview
     id="namedview7"
     pagecolor="#ffffff"
     bordercolor="#000000"
     borderopacity="0.25"
     inkscape:showpageshadow="2"
     inkscape:pageopacity="0.0"
     inkscape:pagecheckerboard="0"
     inkscape:deskcolor="#d1d1d1"
     inkscape:document-units="px"
     showgrid="false"
     inkscape:zoom="2.3673828"
     inkscape:cx="125.24379"
     inkscape:cy="122.07574"
     inkscape:window-width="1920"
     inkscape:window-height="1011"
     inkscape:window-x="0"
     inkscape:window-y="0"
     inkscape:window-maximized="1"
     inkscape:current-layer="layer1" />
  <defs
     id="defs2" />
  <g
     inkscape:label="Capa 1"
     inkscape:groupmode="layer"
     id="layer1"
     transform="translate(-1.3183722,2.1829885)">
    <circle
       style="fill:#ffffff;stroke:#eee2de;stroke-width:0"
       id="path346"
       cx="127.55094"
       cy="122.69655"
       r="125" />
    <path
       style="fill:#b31312;fill-opacity:1;stroke:#2b2a4c;stroke-width:0;stroke-dasharray:none;stroke-opacity:1"
       d="m 37.158735,75.188717 87.976705,-58.365495 89.41291,58.739673 -0.25253,118.979195 -177.386447,-0.0418 -0.01789,-15.94333 c 0,0 118.04569,20.60441 154.55512,-16.13996 17.92214,-18.03747 18.38453,-52.96928 7.43614,-75.918917 C 186.14403,59.795604 154.36807,37.769049 124.78296,37.64236 93.662283,37.509095 46.399892,88.364383 46.399892,88.364383 Z"
       id="path288"
       sodipodi:nodetypes="ccccccaaacc" />
    <rect
       style="fill:#2b2a4c;fill-opacity:1;stroke:#2b2a4c;stroke-width:1.04092;stroke-dasharray:none;stroke-opacity:1"
       id="rect3091"
       width="24.108988"
       height="102.69054"
       x="108.35894"
       y="65.93821" />
    <path
       style="fill:#eee2de;fill-opacity:1;stroke:#eee2de;stroke-width:1;stroke-dasharray:none;stroke-opacity:1"
       d="m 64.138215,116.87303 c 0.450445,2.22562 2.056873,4.26208 3.904346,5.58235 7.135151,5.09905 16.528351,6.74009 25.281378,7.28341 17.291161,1.07331 35.170131,-3.08608 51.362211,2.54002 6.0356,2.09713 13.53061,5.08585 15.60757,11.12842 1.47502,4.29133 -0.23694,10.34628 -3.88294,13.04773 -16.40385,12.15417 -41.57593,5.086 -61.246611,-0.37977 -6.963696,-1.93496 -14.736317,-6.88911 -22.010674,-4.97501 -2.469801,0.64988 -4.84744,2.73205 -5.673917,5.14849 -1.209889,3.53746 -1.374465,8.88807 1.950677,11.04499 5.413988,3.51189 14.270305,5.25659 21.703972,6.68934 9.726373,1.87464 19.711783,2.52539 29.616693,2.42916 11.29313,-0.10972 22.82571,-0.40264 33.7074,-3.42516 6.99264,-1.94229 14.70701,-4.01175 19.69284,-9.28537 4.09216,-4.32837 6.31487,-10.62099 6.70296,-16.56489 0.37391,-5.72678 -0.99563,-11.9917 -4.32804,-16.66406 -3.79647,-5.32302 -10.24766,-8.48179 -16.34398,-10.84455 -8.85167,-3.43066 -18.67689,-3.65653 -28.14407,-4.35933 -7.17408,-0.53256 -11.3528,-0.4755 -21.58114,0.11816 -4.62472,0.26843 -13.793817,1.48406 -20.459032,0.0408 -4.788592,-1.03692 -11.451209,-1.599 -13.369879,-6.10727 -1.488188,-3.49678 0.348005,-7.52429 3.775904,-10.757417 9.555603,-9.01267 11.79611,-5.91123 6.138431,-9.66234 -5.328755,-3.533036 -17.893628,6.90794 -17.893628,6.90794 0,0 -5.934883,14.026457 -4.510471,21.064387 z"
       id="path4655"
       sodipodi:nodetypes="aasaaasaasaaaaaaaasaassca" />
    <path
       style="fill:#b31312;fill-opacity:1;stroke:#b31312;stroke-width:1;stroke-dasharray:none;stroke-opacity:1"
       d="m 85.501111,73.446968 c 16.288819,-2.550196 70.792139,-1.775441 70.792139,-1.775441 l 0.0526,-9.428703 17.3525,-0.07176 0.0771,38.631916 -17.15469,0.3403 -0.12318,-9.039917 c 0,0 -49.21479,0.56403 -59.174688,0.79643 -8.505317,0.19846 -16.845247,0.15434 -23.388348,10.217797 -3.020945,4.64629 -9.435969,14.96144 -9.435969,14.96144 0,0 -3.247875,-6.27654 -3.793175,-9.7076 -0.941088,-5.92138 -0.97482,-12.306897 1.029666,-17.957597 1.411264,-3.97839 4.088594,-7.661252 7.404382,-10.27369 4.628557,-3.64674 10.53995,-5.781731 16.361593,-6.693174 z"
       id="path1207"
       sodipodi:nodetypes="sccccccsscaaass" />
    <path
       style="fill:#ba000d;fill-opacity:1;stroke:#ba000d;stroke-width:1;stroke-dasharray:none;stroke-opacity:1"
       d="m 105.48098,110.23265 c 6.81315,-6.87201 19.45622,-1.16036 29.02979,0.25039 0.69962,0.1031 1.59728,0.0402 2.03655,0.59443 0.66264,0.836 0.19095,2.1291 0.1716,3.19569 -0.1901,10.4765 -2.85082,20.82946 -2.8232,31.30765 0.0222,8.43724 7.57317,18.52714 2.40615,25.19718 -3.74927,4.83988 -12.02693,3.22071 -18.13959,2.87889 -4.85418,-0.27145 -11.21494,0.0642 -14.06031,-3.87798 -6.851868,-9.49302 1.60122,-23.37052 1.8006,-35.07632 0.13893,-8.15667 -6.165201,-18.6767 -0.42159,-24.46993 z"
       id="path3147"
       sodipodi:nodetypes="aaaaaaaaaa" />
  </g>
</svg>
