<?xml version="1.0" encoding="UTF-8" standalone="no"?>
<!-- Created with Inkscape (http://www.inkscape.org/) -->

<svg
   width="180"
   height="180"
   viewBox="0 0 180 180"
   version="1.1"
   id="svg5"
   inkscape:version="1.2.2 (b0a8486541, 2022-12-01)"
   sodipodi:docname="logo.svg"
   xmlns:inkscape="http://www.inkscape.org/namespaces/inkscape"
   xmlns:sodipodi="http://sodipodi.sourceforge.net/DTD/sodipodi-0.dtd"
   xmlns="http://www.w3.org/2000/svg"
   xmlns:svg="http://www.w3.org/2000/svg">
  <sodipodi:namedview
     id="namedview7"
     pagecolor="#ffffff"
     bordercolor="#000000"
     borderopacity="0.25"
     inkscape:showpageshadow="2"
     inkscape:pageopacity="0.0"
     inkscape:pagecheckerboard="0"
     inkscape:deskcolor="#d1d1d1"
     inkscape:document-units="px"
     showgrid="false"
     inkscape:zoom="2.3673828"
     inkscape:cx="32.314165"
     inkscape:cy="108.13629"
     inkscape:window-width="1920"
     inkscape:window-height="1011"
     inkscape:window-x="0"
     inkscape:window-y="0"
     inkscape:window-maximized="1"
     inkscape:current-layer="layer1" />
  <defs
     id="defs2" />
  <g
     inkscape:label="Capa 1"
     inkscape:groupmode="layer"
     id="layer1">
    <path
       style="fill:#b31312;stroke:#2b2a4c;stroke-width:0;stroke-dasharray:none;stroke-opacity:1;fill-opacity:1"
       d="M 1.1947052,59.706496 89.171406,1.3410011 178.58432,60.080674 178.33179,179.05987 0.94534306,179.01803 0.92745041,163.0747 c 0,0 118.04568959,20.60441 154.55511959,-16.13996 17.92214,-18.03747 18.38453,-52.969279 7.43614,-75.918917 C 150.18,44.313383 118.40404,22.286828 88.818931,22.160139 57.698253,22.026874 10.435862,72.882161 10.435862,72.882161 Z"
       id="path288"
       sodipodi:nodetypes="ccccccaaacc" />
    <rect
       style="fill:#2b2a4c;fill-opacity:1;stroke:#2b2a4c;stroke-width:1.04092;stroke-dasharray:none;stroke-opacity:1"
       id="rect3091"
       width="24.108988"
       height="102.69054"
       x="72.394913"
       y="50.45599" />
    <path
       style="fill:#eee2de;fill-opacity:1;stroke:#eee2de;stroke-width:1;stroke-dasharray:none;stroke-opacity:1"
       d="m 28.174185,101.39081 c 0.450445,2.22562 2.056873,4.26208 3.904346,5.58235 7.135151,5.09905 16.528351,6.74009 25.281378,7.28341 17.291161,1.07331 35.170128,-3.08608 51.362211,2.54002 6.0356,2.09713 13.53061,5.08585 15.60757,11.12842 1.47502,4.29133 -0.23694,10.34628 -3.88294,13.04773 -16.40385,12.15417 -41.575933,5.086 -61.246611,-0.37977 -6.963696,-1.93496 -14.736317,-6.88911 -22.010674,-4.97501 -2.469801,0.64988 -4.84744,2.73205 -5.673917,5.14849 -1.209889,3.53746 -1.374465,8.88807 1.950677,11.04499 5.413988,3.51189 14.270305,5.25659 21.703972,6.68934 9.726373,1.87464 19.711781,2.52539 29.616696,2.42916 11.293124,-0.10972 22.825707,-0.40264 33.707397,-3.42516 6.99264,-1.94229 14.70701,-4.01175 19.69284,-9.28537 4.09216,-4.32837 6.31487,-10.62099 6.70296,-16.56489 0.37391,-5.72678 -0.99563,-11.9917 -4.32804,-16.66406 -3.79647,-5.32302 -10.24766,-8.48179 -16.34398,-10.84455 -8.85167,-3.43066 -18.67689,-3.65653 -28.144071,-4.359323 -7.174082,-0.532563 -11.352801,-0.475507 -21.581142,0.118156 -4.624715,0.268427 -13.793814,1.484057 -20.459029,0.04077 -4.788592,-1.036924 -11.451209,-1.598998 -13.369879,-6.107272 -1.488188,-3.496779 0.348005,-7.524289 3.775904,-10.75742 9.555603,-9.012669 11.79611,-5.911226 6.138431,-9.662341 -5.328755,-3.533034 -17.893628,6.907944 -17.893628,6.907944 0,0 -5.934883,14.026456 -4.510471,21.06439 z"
       id="path4655"
       sodipodi:nodetypes="aasaaasaasaaaaaaaasaassca" />
    <path
       style="fill:#b31312;fill-opacity:1;stroke:#b31312;stroke-width:1;stroke-dasharray:none;stroke-opacity:1"
       d="m 49.537081,57.964747 c 16.288823,-2.550196 70.792139,-1.775441 70.792139,-1.775441 l 0.0526,-9.428703 17.3525,-0.07176 0.0771,38.631916 -17.15469,0.3403 -0.12318,-9.039921 c 0,0 -49.214786,0.564033 -59.174688,0.796435 -8.505317,0.198461 -16.845247,0.154339 -23.388348,10.217796 -3.020945,4.64629 -9.435969,14.961441 -9.435969,14.961441 0,0 -3.247875,-6.27654 -3.793175,-9.7076 -0.941088,-5.92138 -0.97482,-12.306896 1.029666,-17.957598 1.411264,-3.978394 4.088594,-7.661252 7.404382,-10.27369 4.628557,-3.64674 10.53995,-5.781731 16.361593,-6.693174 z"
       id="path1207"
       sodipodi:nodetypes="sccccccsscaaass" />
    <path
       style="fill:#ba000d;fill-opacity:1;stroke:#ba000d;stroke-width:1;stroke-dasharray:none;stroke-opacity:1"
       d="m 69.516954,94.750433 c 6.813148,-6.872006 19.456215,-1.160364 29.029783,0.250392 0.699621,0.103096 1.597283,0.04022 2.036553,0.594423 0.66264,0.836004 0.19095,2.129103 0.1716,3.195693 -0.1901,10.476499 -2.850818,20.829459 -2.823201,31.307649 0.02224,8.43724 7.573171,18.52714 2.406151,25.19718 -3.749267,4.83988 -12.026933,3.22071 -18.139589,2.87889 -4.854183,-0.27145 -11.214937,0.0642 -14.060309,-3.87798 -6.85187,-9.49302 1.601215,-23.37052 1.800594,-35.07632 0.138929,-8.15667 -6.165192,-18.6767 -0.421582,-24.469927 z"
       id="path3147"
       sodipodi:nodetypes="aaaaaaaaaa" />
  </g>
</svg>
